HIERARCHY
ROOT bip01_pelvis
{
	OFFSET -0.141780 111.560104 -53.453648
	CHANNELS 6 Xposition Yposition Zposition Xrotation Yrotation Zrotation
	JOINT bip01_l_thigh
	{
		OFFSET -12.581326 0.000023 0.838757
		CHANNELS 3 Xrotation Yrotation Zrotation
		JOINT bip01_l_calf
		{
			OFFSET -5.405050 -43.060066 12.568863
			CHANNELS 3 Xrotation Yrotation Zrotation
			JOINT bip01_l_foot
			{
				OFFSET -6.378141 -25.639313 -28.000755
				CHANNELS 3 Xrotation Yrotation Zrotation
				JOINT bip01_l_toe0
				{
					OFFSET -1.312191 -43.345943 -5.410645
					CHANNELS 3 Xrotation Yrotation Zrotation
					End Site
					{
						OFFSET 0.668312 -0.011212 0.027710
					}
				}
			}
		}
	}
	JOINT bip01_r_thigh
	{
		OFFSET 12.581315 -0.000053 -0.838764
		CHANNELS 3 Xrotation Yrotation Zrotation
		JOINT bip01_r_calf
		{
			OFFSET 7.025425 -43.060097 11.740181
			CHANNELS 3 Xrotation Yrotation Zrotation
			JOINT bip01_r_foot
			{
				OFFSET 2.604660 -25.639347 -28.599602
				CHANNELS 3 Xrotation Yrotation Zrotation
				JOINT bip01_r_toe0
				{
					OFFSET 0.582125 -43.345810 -5.536972
					CHANNELS 3 Xrotation Yrotation Zrotation
					End Site
					{
						OFFSET 0.658720 0.011207 -0.116180
					}
				}
			}
		}
	}
	JOINT bip01_spine
	{
		OFFSET 1.130847 -10.257637 16.963192
		CHANNELS 3 Xrotation Yrotation Zrotation
		JOINT bip01_spine1
		{
			OFFSET 2.125925 -0.408882 31.891911
			CHANNELS 3 Xrotation Yrotation Zrotation
			JOINT bip01_spine2
			{
				OFFSET 3.104555 -1.436646 46.949230
				CHANNELS 3 Xrotation Yrotation Zrotation
				JOINT bip01_neck
				{
					OFFSET 1.831697 12.621635 29.209831
					CHANNELS 3 Xrotation Yrotation Zrotation
					JOINT bip01_head
					{
						OFFSET 0.933028 14.642593 15.308128
						CHANNELS 3 Xrotation Yrotation Zrotation
						JOINT bip01_ponytail1
						{
							OFFSET 12.881245 30.917107 3.869919
							CHANNELS 3 Xrotation Yrotation Zrotation
							End Site
							{
								OFFSET -0.556711 0.315430 0.195229
							}
						}
						JOINT bip01_ponytail2
						{
							OFFSET -12.308470 31.163292 5.588448
							CHANNELS 3 Xrotation Yrotation Zrotation
							End Site
							{
								OFFSET -0.577699 -0.315430 -0.119598
							}
						}
						JOINT bone01
						{
							OFFSET -0.035753 10.693596 0.910164
							CHANNELS 3 Xrotation Yrotation Zrotation
							End Site
							{
								OFFSET -0.667642 0.000000 0.042305
							}
						}
						JOINT bone03
						{
							OFFSET -2.859410 10.011330 9.974838
							CHANNELS 3 Xrotation Yrotation Zrotation
							End Site
							{
								OFFSET 0.042301 0.000000 0.667641
							}
						}
						JOINT bone05
						{
							OFFSET 4.144515 10.011345 9.531006
							CHANNELS 3 Xrotation Yrotation Zrotation
							End Site
							{
								OFFSET 0.042301 0.000000 0.667641
							}
						}
					}
					JOINT bip01_l_clavicle
					{
						OFFSET -6.817371 -1.737137 -4.124603
						CHANNELS 3 Xrotation Yrotation Zrotation
						JOINT bip01_l_upperarm
						{
							OFFSET -13.915021 0.119522 7.203735
							CHANNELS 3 Xrotation Yrotation Zrotation
							JOINT bip01_l_forearm
							{
								OFFSET 0.900768 -49.360191 -24.691143
								CHANNELS 3 Xrotation Yrotation Zrotation
								JOINT bip01_l_hand
								{
									OFFSET 5.453267 -54.192162 0.261513
									CHANNELS 3 Xrotation Yrotation Zrotation
									End Site
									{
										OFFSET -0.048247 0.019447 -0.666954
									}
								}
							}
						}
					}
					JOINT bip01_r_clavicle
					{
						OFFSET 6.291911 -1.668388 -4.989365
						CHANNELS 3 Xrotation Yrotation Zrotation
						JOINT bip01_r_upperarm
						{
							OFFSET 14.738678 0.269737 5.313599
							CHANNELS 3 Xrotation Yrotation Zrotation
							JOINT bip01_r_forearm
							{
								OFFSET -4.170362 -49.360199 -24.353104
								CHANNELS 3 Xrotation Yrotation Zrotation
								JOINT bip01_r_hand
								{
									OFFSET -5.370342 -54.192158 0.983074
									CHANNELS 3 Xrotation Yrotation Zrotation
									End Site
									{
										OFFSET 0.040714 -0.019448 0.667458
									}
								}
							}
						}
					}
				}
			}
		}
	}
	JOINT bip01_tail
	{
		OFFSET -1.140240 5.694984 -17.420544
		CHANNELS 3 Xrotation Yrotation Zrotation
		JOINT bip01_tail1
		{
			OFFSET -0.799711 -16.655739 -11.995483
			CHANNELS 3 Xrotation Yrotation Zrotation
			JOINT bip01_tail2
			{
				OFFSET -0.560408 -49.655807 -8.404999
				CHANNELS 3 Xrotation Yrotation Zrotation
				End Site
				{
					OFFSET -0.667499 0.000004 0.044495
				}
			}
		}
	}
}
MOTION
Frames: 12
Frame Time: 0.041667
-0.437313 115.948410 -30.386917 5.893096 -3.048707 2.472126 -2.413815 -15.580674 -8.631481 60.778944 -10.161170 -0.009445 -62.165383 18.041040 12.865121 98.714648 1.464298 10.496489 45.456442 24.454468 -12.589563 0.114295 0.017092 -0.005382 -1.440392 -28.895211 17.134697 92.918235 -11.044552 -20.025888 4.079619 1.957273 -2.587202 7.008058 -3.049126 -1.791738 -9.358371 0.906011 -2.467882 39.173174 -1.590132 4.414765 -53.794174 2.028850 3.249525 26.592353 57.659835 -55.099119 37.286809 -63.152872 53.730479 0.106404 -0.116406 -0.161208 0.627919 -1.919500 -0.014320 1.366937 2.172987 -0.440598 -34.141411 1.812946 20.937953 -46.147668 11.193708 -10.060663 -27.928145 -3.782258 3.725936 62.620670 1.290272 -7.782467 -40.001672 -5.618681 0.544845 -5.148679 6.873920 5.967680 -104.051956 7.484290 5.415502 113.728189 -8.517516 -3.973119 49.965156 -3.377212 3.927841 0.286954 1.493177 -2.283325 -61.198311 -2.894763 3.880151 
-0.437313 114.078178 -30.386343 4.182925 -2.881827 1.083388 -13.249543 -13.511881 -8.689624 61.451854 -10.261262 0.050879 -68.001773 15.358287 16.306838 98.714648 1.464297 10.496487 39.728950 23.734518 -6.376002 17.257345 2.449378 -1.142155 -34.447356 -28.919086 6.830562 93.109603 -10.402585 -16.837765 3.188058 1.445368 -0.568306 14.856080 -3.001137 -1.709912 -11.771545 0.036926 -0.879282 31.231573 -0.973785 3.502881 -49.457489 2.348061 1.405521 26.592353 57.659835 -55.099126 37.286809 -63.152872 53.730479 0.050305 -0.116317 -0.157613 0.613357 -1.872719 -0.008023 1.313246 2.101540 -0.421471 -25.956802 -2.924687 17.473967 -34.557636 13.081580 -8.762924 -47.396462 -7.266095 5.060005 68.773626 0.501127 -10.712584 -29.263508 -8.524852 12.454662 -17.714676 11.416315 -3.463601 -89.454127 7.244901 3.948193 105.858882 -6.565240 -5.332339 47.785550 -3.086788 3.458198 9.144075 1.076081 -3.075373 -62.551562 -2.986826 3.903465 
-0.437313 112.581993 -30.385778 2.663867 -2.749826 -0.307495 -23.458949 -11.606102 -8.043607 60.274712 -10.085675 -0.053868 -73.902339 11.722999 19.349912 98.714648 1.464297 10.496488 36.783099 22.465117 -0.400301 30.833800 4.063771 -2.518558 -65.495476 -23.693694 -3.385095 93.378979 -9.098445 -10.485604 2.545226 0.961260 1.641051 22.886157 -2.946906 -1.645928 -14.869453 -0.941102 0.913650 22.986747 -0.218898 2.678301 -44.741376 2.908697 -0.638070 26.592358 57.659829 -55.099122 37.286812 -63.152872 53.730475 -0.112240 -0.116100 -0.147206 0.581030 -1.759635 -0.005453 1.214724 1.958392 -0.381760 -17.779628 -7.731025 14.235061 -24.773159 16.014167 -8.011849 -60.692009 -9.800568 5.261073 72.054507 0.366185 -13.454799 -16.995456 -10.685460 24.694059 -29.874360 20.495366 -10.276989 -74.880867 6.643776 2.590749 98.070294 -4.454835 -6.412012 44.986525 -2.740465 2.974859 18.436926 0.514708 -3.828780 -64.194510 -3.099293 3.922999 
-0.437314 111.459862 -30.385248 1.025134 -2.625469 -1.707196 -32.032272 -10.244773 -6.937174 56.858675 -9.563780 -0.336963 -78.073037 7.897990 21.263327 98.714641 1.464298 10.496486 29.431896 20.708223 5.701225 44.085910 5.280067 -4.187096 -84.424389 -17.859362 -8.711495 93.455108 -8.439689 -7.323022 1.845296 0.512867 3.755431 30.822598 -2.881167 -1.588596 -17.582391 -1.987553 2.530514 14.910289 0.635496 1.972133 -40.130377 3.521922 -2.302781 26.592353 57.659829 -55.099122 37.286812 -63.152872 53.730475 -0.365564 -0.115833 -0.130992 0.535071 -1.611439 -0.010628 1.096223 1.780577 -0.333281 -10.043592 -12.513375 11.184537 -15.522066 19.259211 -7.927816 -73.566479 -12.216233 4.888971 72.580978 1.084421 -15.913605 -3.896910 -11.586459 37.200390 -42.394619 32.625990 -12.582513 -60.342030 5.724381 1.430071 90.335057 -2.203729 -7.188195 42.501600 -2.295751 2.493797 27.497679 -0.138257 -4.463074 -65.693641 -3.204056 3.941522 
-0.437314 109.028564 -30.384756 -1.025048 -2.485330 -3.140720 -38.088659 -9.747195 -5.777924 51.184406 -8.660398 -0.736268 -79.105994 4.898342 21.977356 98.714641 1.464297 10.496487 14.709985 17.588150 12.005314 56.885333 6.059623 -6.018830 -90.115767 -15.204862 -10.807742 91.732268 -8.684283 -7.388456 0.767981 0.075225 5.488454 38.397295 -2.791414 -1.518632 -18.866002 -2.960769 3.642575 7.470661 1.535965 1.382029 -36.152540 3.843754 -3.171086 26.592355 57.659835 -55.099133 37.286802 -63.152872 53.730486 -0.678892 -0.118999 -0.109963 0.482916 -1.440572 -0.017475 0.969329 1.586194 -0.278896 -3.206952 -17.169439 8.249514 -5.896389 22.321195 -8.589957 -81.860220 -13.691584 4.362282 69.550341 2.853510 -17.680669 9.157165 -10.808618 49.692413 -58.151288 45.818958 -7.584293 -45.855301 4.545720 0.540186 82.636218 0.097294 -7.658403 41.249572 -1.746956 1.993655 35.666575 -0.813724 -4.941695 -66.611591 -3.264749 3.950903 
-0.437314 106.036194 -30.384331 -3.744669 -2.283679 -4.079695 -41.194182 -10.275115 -4.912985 43.422904 -7.365327 -1.132638 -75.306141 3.756958 21.694105 98.714648 1.464298 10.496488 -3.748395 13.087535 17.634230 62.769015 6.277071 -6.908519 -83.547823 -14.438185 -10.843784 86.900463 -9.361859 -7.610782 -1.017559 -0.362663 6.551791 45.341419 -2.672437 -1.434188 -17.683833 -3.690657 3.937409 1.145664 2.427192 0.885664 -33.363869 3.470563 -2.983316 26.592351 57.659835 -55.099126 37.286809 -63.152872 53.730482 -1.041562 -0.117945 -0.083386 0.424885 -1.273098 -0.025689 0.845999 1.392001 -0.228851 2.263153 -21.634761 5.339505 4.351376 24.941795 -9.893706 -86.200163 -14.425308 4.001461 61.816887 5.738831 -18.025050 21.171220 -8.112861 61.738592 -83.441259 56.631718 10.554294 -31.406241 3.182649 -0.024993 74.953629 2.441881 -7.813101 42.156419 -1.110050 1.414777 42.278369 -1.402627 -5.255438 -66.507020 -3.257895 3.948996 
-0.437314 101.547646 -30.383823 -7.754530 -1.818175 -4.966869 -41.462639 -12.244647 -4.218245 33.470352 -5.640369 -1.376749 -62.935610 6.148935 19.704399 92.663387 0.729451 9.563166 -22.127897 8.991871 20.596644 57.364894 6.080743 -6.090475 -64.629142 -15.177958 -8.084524 79.892880 -10.303481 -8.029887 -4.191990 -0.964635 6.724597 52.839487 -2.515060 -1.292640 -13.238350 -4.295034 3.047236 -4.628166 3.421336 0.373714 -31.852382 1.974035 -1.210630 26.592355 57.659835 -55.099126 37.286802 -63.152872 53.730479 -1.433307 -0.117994 -0.058308 0.368919 -1.116391 -0.029295 0.738390 1.217261 -0.188459 6.946826 -26.020055 2.488961 12.740415 28.065010 -10.381350 -85.427109 -14.296850 4.069880 49.671926 8.777987 -16.342927 18.225851 -6.980754 52.590462 -53.913746 43.726229 -13.959512 -54.404943 5.269181 1.029485 79.176885 2.984137 -4.130093 46.437128 -0.462332 0.627624 47.350129 -1.878746 -5.452978 -65.819541 -3.209325 3.941929 
-0.437314 95.749908 -30.383327 -12.844783 -1.054359 -5.745667 -37.924246 -15.504990 -3.736271 20.279310 -3.330074 -1.232274 -42.790493 10.529537 15.479816 78.019161 -0.604677 7.026915 -34.750674 7.465138 20.870290 43.980797 5.271995 -4.172826 -43.045686 -15.315103 -4.411222 72.083269 -11.279467 -8.629537 -8.565657 -1.705280 6.191426 61.072881 -2.311599 -1.114205 -6.240060 -5.012615 1.254438 -10.164247 4.540533 -0.140572 -31.213538 -0.369420 1.701005 26.592353 57.659842 -55.099126 37.286812 -63.152872 53.730482 -1.838636 -0.118216 -0.032389 0.322935 -0.980390 -0.035257 0.649479 1.067243 -0.151508 11.166320 -30.324568 -0.348109 16.484183 32.472205 -8.598890 -79.846359 -13.341472 4.510149 35.840236 10.958603 -13.223229 16.471189 -3.852796 43.412604 -40.775652 26.739405 -21.219772 -70.590954 6.403671 2.224534 78.407457 2.977485 0.227797 53.474736 0.044360 -0.400608 51.330316 -2.261624 -5.573699 -64.837804 -3.142747 3.933313 
-0.437315 90.139229 -30.382935 -18.109973 -0.252144 -6.238793 -32.750726 -19.232705 -3.102587 5.794806 -0.903221 -0.471038 -19.114455 14.354720 9.247939 63.328933 -1.253717 4.232738 -43.104863 6.998854 20.529793 30.491436 4.027325 -2.479342 -25.096559 -14.613475 -1.975916 65.016557 -12.084596 -9.288244 -13.173045 -2.339170 5.291200 68.260316 -2.069240 -0.965539 2.079291 -5.828093 -0.806957 -14.630596 5.570198 -0.573828 -31.269333 -2.810708 4.634970 26.592353 57.659842 -55.099122 37.286809 -63.152872 53.730482 -2.227602 -0.118611 -0.007509 0.286533 -0.879434 -0.036422 0.581558 0.954617 -0.126679 13.945497 -34.354865 -3.465832 15.559094 37.274518 -4.145200 -70.590627 -11.668211 5.023945 22.115203 12.241880 -9.536870 15.456045 1.109125 34.316014 -32.419404 9.712988 -21.766203 -81.472675 6.957654 3.185698 73.392596 2.051402 4.515027 61.442770 0.286406 -1.549683 54.190075 -2.543246 -5.645879 -62.911636 -3.011802 3.908730 
-0.437313 83.967461 -30.382698 -22.658570 0.282087 -6.387603 -28.191768 -22.693659 -2.225587 -8.067687 1.166544 0.801132 3.290361 16.102161 2.842414 57.232249 -1.310293 3.040060 -51.524809 5.256078 20.397966 21.505590 2.989763 -1.531508 -10.580937 -13.536390 -0.623108 60.108834 -12.592033 -9.797759 -17.030180 -2.680822 4.379640 72.621003 -1.823286 -0.892811 10.523149 -6.535647 -2.568255 -17.200325 6.270997 -0.890045 -31.938504 -4.708709 6.735305 26.592356 57.659842 -55.099122 37.286809 -63.152872 53.730475 -3.893877 0.166107 0.282286 0.240171 -0.785629 -0.167138 0.517623 0.803961 -0.215002 20.786738 -33.728786 4.661946 20.486432 38.842794 -12.959697 -73.561643 -12.215349 4.889212 48.435385 7.779566 -14.570477 14.673995 7.647179 25.148511 -24.007550 -6.499436 -18.387704 -87.291006 7.176685 3.737742 63.979994 0.154627 7.726137 68.520130 0.293971 -2.623095 55.914879 -2.713080 -5.680022 -59.391111 -2.773634 3.850637 
-0.437313 79.665947 -30.382591 -25.590914 0.257450 -6.235100 -27.561582 -17.259864 -5.473880 16.508279 -2.680813 -1.093499 -23.786750 13.600655 7.002017 60.647743 1.211178 3.345583 -59.751636 2.325956 20.177152 17.094022 2.428024 -1.127990 0.131657 -12.257057 0.019712 58.354206 -12.760618 -9.990852 -19.141030 -2.623579 3.838491 72.377923 -1.616153 -0.926265 17.889065 -6.714862 -3.570833 -17.031075 6.397832 -1.079209 -33.154688 -5.581040 7.365260 26.592358 57.659835 -55.099126 37.286812 -63.152872 53.730475 -3.647601 0.167688 0.265068 0.205570 -0.691972 -0.265854 0.451288 0.661409 -0.281607 24.427822 -31.819010 12.191168 24.535267 37.622311 -21.523582 -68.973532 -11.367200 5.085063 70.360135 2.106094 -15.717186 13.668872 15.427408 15.464286 -13.032277 -20.942688 -10.627660 -87.005197 7.167217 3.710125 49.593700 -2.145828 8.915822 72.878801 0.234388 -3.428653 56.476980 -2.770264 -5.691171 -53.632602 -2.392473 3.725018 
-0.437315 75.738457 -30.382809 -26.771031 -0.605519 -5.701515 -19.020086 -13.678785 -7.454108 29.272654 -4.903117 -1.388756 -50.009259 8.602777 12.433950 65.973064 4.112322 2.908448 -60.392089 0.682160 19.588042 15.546274 2.223634 -0.996759 3.921296 -11.203624 -0.313309 58.555902 -12.036965 -9.398199 -19.165844 -1.950474 3.703490 65.721357 -1.580272 -1.055099 24.966966 -5.940574 -3.851621 -12.952569 5.777200 -1.124895 -35.497221 -5.315476 6.300996 26.592348 57.659835 -55.099119 37.286802 -63.152872 53.730486 -3.538670 0.168525 0.257180 0.173100 -0.611116 -0.329929 0.389626 0.534948 -0.326771 23.421415 -27.242064 19.514482 21.842950 34.211308 -25.866761 -48.421725 -7.459693 5.096613 93.675539 -4.153222 -13.370808 11.827302 23.965156 4.535528 -0.412875 -31.511139 2.097625 -78.329593 6.816514 2.897525 30.755269 -3.710341 7.602874 74.030508 0.275881 -3.895783 55.922471 -2.713718 -5.680316 -43.709095 -1.774192 3.419056 
